<?xml version="1.0" encoding="UTF-8" standalone="no"?>
<!DOCTYPE svg PUBLIC "-//W3C//DTD SVG 1.1//EN" "http://www.w3.org/Graphics/SVG/1.1/DTD/svg11.dtd">
<svg width="100%" height="100%" viewBox="0 0 999 1000" version="1.1" xmlns="http://www.w3.org/2000/svg" xmlns:xlink="http://www.w3.org/1999/xlink" xml:space="preserve" xmlns:serif="http://www.serif.com/" style="fill-rule:evenodd;clip-rule:evenodd;stroke-linejoin:round;stroke-miterlimit:2;">
    <g transform="matrix(1,0,0,1,-1050.555376,-0)">
        <g transform="matrix(5.254607,0,0,5.254607,-7973.308189,-2057.230432)">
            <g transform="matrix(1,0,0,1,1050,0)">
                <path d="M667.424,476.833C667.893,469.349 668.919,461.774 670.665,454.439C674.218,439.721 680.815,426.527 690.965,415.869C701.622,405.72 714.817,399.122 729.534,395.57C740.191,393.032 751.356,391.51 762.013,391.51C772.671,391.51 783.836,393.032 794.493,395.57C809.21,399.122 822.912,405.72 833.57,415.869C843.72,426.527 850.317,439.721 853.869,454.439C855.647,461.904 856.677,469.368 857.135,476.833L844.371,476.833C843.88,470.284 842.866,463.884 841.182,457.484C838.645,445.304 832.555,434.139 823.927,425.004C814.793,416.377 804.135,410.794 791.955,408.257C782.313,405.72 772.671,404.705 762.521,404.705C752.371,404.705 742.729,405.72 733.086,408.257C720.907,410.794 709.742,416.377 700.607,425.004C691.98,434.139 685.89,445.304 683.352,457.484C681.668,463.884 680.655,470.284 680.163,476.833L667.424,476.833Z" style="fill:url(#_Linear1);"/>
            </g>
            <g transform="matrix(1,0,0,1,1050,0)">
                <path d="M857.422,495.167L857.422,581.819L844.735,581.819L844.735,541.727C841.69,547.817 838.137,552.892 833.57,557.459C822.912,567.609 809.21,574.207 794.493,577.759C783.836,580.297 773.178,581.819 762.521,581.819C751.864,581.819 740.191,580.297 729.534,577.759C714.817,574.207 702.13,567.609 691.472,557.459C681.322,546.802 674.218,533.607 670.665,518.89C668.782,510.982 667.738,503.074 667.324,495.167L680.045,495.167C680.481,502.177 681.519,508.879 683.352,515.845C685.89,528.025 691.98,539.697 700.607,548.832C709.742,557.459 720.907,563.549 733.086,566.087C742.729,568.624 751.864,569.639 762.013,569.639C772.163,569.639 781.806,568.624 791.448,566.087C803.628,563.549 815.3,557.459 824.435,548.832C833.062,539.697 838.645,528.025 841.182,515.845C843.015,508.879 844.054,502.177 844.489,495.167L857.422,495.167Z" style="fill:url(#_Linear2);"/>
            </g>
            <g transform="matrix(0.51678,0,0,0.51678,1556.671987,160.398445)">
                <g transform="matrix(50,0,0,50,663.936767,646.508233)">
                </g>
                <text x="323.898px" y="646.508px" style="font-family:'CorbelLight', 'Corbel', sans-serif;font-weight:300;font-size:50px;fill:white;">M<tspan x="414.791px 496.993px 573.385px 634.225px " y="646.508px 646.508px 646.508px 646.508px ">USIC</tspan></text>
            </g>
        </g>
    </g>
    <defs>
        <linearGradient id="_Linear1" x1="0" y1="0" x2="1" y2="0" gradientUnits="userSpaceOnUse" gradientTransform="matrix(0.955484,-85.323509,85.323509,0.955484,445.182853,476.833333)"><stop offset="0" style="stop-color:white;stop-opacity:0"/><stop offset="0.48" style="stop-color:white;stop-opacity:0.27"/><stop offset="1" style="stop-color:white;stop-opacity:1"/></linearGradient>
        <linearGradient id="_Linear2" x1="0" y1="0" x2="1" y2="0" gradientUnits="userSpaceOnUse" gradientTransform="matrix(0.093464,86.652331,-86.652331,0.093464,499.906536,495.166667)"><stop offset="0" style="stop-color:white;stop-opacity:0"/><stop offset="0.48" style="stop-color:white;stop-opacity:0.27"/><stop offset="1" style="stop-color:white;stop-opacity:1"/></linearGradient>
    </defs>
</svg>
